<?xml version="1.0" encoding="UTF-8"?>
<!DOCTYPE svg PUBLIC "-//W3C//DTD SVG 1.1//EN" "http://www.w3.org/Graphics/SVG/1.1/DTD/svg11.dtd">
<!-- Creator: CorelDRAW -->
<svg xmlns="http://www.w3.org/2000/svg" xml:space="preserve" width="47.0747mm" height="47.0958mm" style="shape-rendering:geometricPrecision; text-rendering:geometricPrecision; image-rendering:optimizeQuality; fill-rule:evenodd; clip-rule:evenodd"
viewBox="0 0 42.6405 42.6596"
 xmlns:xlink="http://www.w3.org/1999/xlink">
 <defs>
  <style type="text/css">
   <![CDATA[
    .fil2 {fill:none}
    .fil1 {fill:#0167C9}
    .fil0 {fill:#38AA3F}
   ]]>
  </style>
 </defs>
 <g id="Layer_x0020_1">
  <metadata id="CorelCorpID_0Corel-Layer"/>
  <g id="_194157624">
   <g>
    <path id="_466217352" class="fil0" d="M21.9944 17.3687c1.40463,-8.77182 6.00359,-14.2922 15.8418,-14.48 -1.06894,9.7817 -6.97941,13.8674 -15.8418,14.48z"/>
    <path id="_471850488" class="fil1" d="M21.6088 10.6806c0.741673,-2.3772 1.79522,-4.461 3.20845,-6.20658 -1.09892,-0.212049 -2.2339,-0.323191 -3.39478,-0.323191 -9.83623,0 -17.81,7.9738 -17.81,17.81 0,9.83623 7.9738,17.81 17.81,17.81 8.54229,0 15.6799,-6.01391 17.4099,-14.0389 0.34955,-1.6213 0.124276,-5.09307 0.124276,-6.91012l-6.6949 0 -6.69127 0c-1.98516,0 -3.60936,1.6242 -3.60936,3.60936 0,1.81541 1.48543,3.30075 3.30084,3.30075l6.79653 0c-1.55174,4.37631 -5.72786,7.51067 -10.6361,7.51067 -6.23076,0 -11.2818,-5.05104 -11.2818,-11.2818 0,-6.23076 5.05104,-11.2818 11.2818,-11.2818 0.0622288,0 0.124367,0.000543483 0.186324,0.00153987z"/>
   </g>
   <rect id="_454740864" class="fil2" x="3.36433e-005" width="42.6405" height="42.6596"/>
  </g>
 </g>
</svg>
